<?xml version="1.0" encoding="utf-8"?>
<svg version="1.1" id="Layer_1"
xmlns="http://www.w3.org/2000/svg"
xmlns:xlink="http://www.w3.org/1999/xlink"
width="550px" height="133px"
xml:space="preserve">
<g id="PathID_1" transform="matrix(1.33822, 0, 0, 1.33822, 139.6, 91.3)" opacity="1">
<linearGradient
id="LinearGradID_1" gradientUnits="userSpaceOnUse" gradientTransform="matrix(-6.83584e-009, 0.156386, -0.0237092, -1.03636e-009, 128.55, -18.55)" spreadMethod ="pad" x1="-819.2" y1="0" x2="819.2" y2="0" >
<stop  offset="0" style="stop-color:#94D9F7;stop-opacity:1" />
<stop  offset="0.486275" style="stop-color:#00A3DE;stop-opacity:1" />
<stop  offset="0.52549" style="stop-color:#0065B1;stop-opacity:1" />
<stop  offset="0.607843" style="stop-color:#0095D3;stop-opacity:1" />
</linearGradient>
<path style="fill:url(#LinearGradID_1) " d="M22.55 -13.85L17.95 -28.5L17.85 -28.5L13.2 -13.85L22.55 -13.85M35.45 0L27.05 0L24.75 -7.55L11.2 -7.55L8.6 0L0.5 0L13.55 -36.8L22.45 -36.8L35.45 0" />
</g>
<g id="PathID_2" transform="matrix(1.33822, 0, 0, 1.33822, 139.6, 91.3)" opacity="1">
</g>
<g id="PathID_3" transform="matrix(1.33822, 0, 0, 1.33822, 186.95, 91.3)" opacity="1">
<linearGradient
id="LinearGradID_2" gradientUnits="userSpaceOnUse" gradientTransform="matrix(-6.83584e-009, 0.156386, -0.0237092, -1.03636e-009, 93.2, -18.55)" spreadMethod ="pad" x1="-819.2" y1="0" x2="819.2" y2="0" >
<stop  offset="0" style="stop-color:#94D9F7;stop-opacity:1" />
<stop  offset="0.486275" style="stop-color:#00A3DE;stop-opacity:1" />
<stop  offset="0.52549" style="stop-color:#0065B1;stop-opacity:1" />
<stop  offset="0.607843" style="stop-color:#0095D3;stop-opacity:1" />
</linearGradient>
<path style="fill:url(#LinearGradID_2) " d="M26.35 -30.3L7.85 -30.3L7.85 -22L24.05 -22L24.05 -15.5L7.85 -15.5L7.85 0L0.15 0L0.15 -36.8L26.35 -36.8L26.35 -30.3" />
</g>
<g id="PathID_4" transform="matrix(1.33822, 0, 0, 1.33822, 186.95, 91.3)" opacity="1">
</g>
<g id="PathID_5" transform="matrix(1.33822, 0, 0, 1.33822, 223.3, 91.3)" opacity="1">
<linearGradient
id="LinearGradID_3" gradientUnits="userSpaceOnUse" gradientTransform="matrix(-6.83584e-009, 0.156386, -0.0237092, -1.03636e-009, 66, -18.55)" spreadMethod ="pad" x1="-819.2" y1="0" x2="819.2" y2="0" >
<stop  offset="0" style="stop-color:#94D9F7;stop-opacity:1" />
<stop  offset="0.486275" style="stop-color:#00A3DE;stop-opacity:1" />
<stop  offset="0.52549" style="stop-color:#0065B1;stop-opacity:1" />
<stop  offset="0.607843" style="stop-color:#0095D3;stop-opacity:1" />
</linearGradient>
<path style="fill:url(#LinearGradID_3) " d="M33.05 -36.8L20.75 -13.8L20.75 0L13.1 0L13.1 -13.85L0.4 -36.8L9.35 -36.8L17.1 -21.8L24.25 -36.8L33.05 -36.8" />
</g>
<g id="PathID_6" transform="matrix(1.33822, 0, 0, 1.33822, 223.3, 91.3)" opacity="1">
</g>
<g id="PathID_7" transform="matrix(1.33822, 0, 0, 1.33822, 253.2, 91.3)" opacity="1">
<linearGradient
id="LinearGradID_4" gradientUnits="userSpaceOnUse" gradientTransform="matrix(-6.83584e-009, 0.156386, -0.0237092, -1.03636e-009, 43.65, -18.55)" spreadMethod ="pad" x1="-819.2" y1="0" x2="819.2" y2="0" >
<stop  offset="0" style="stop-color:#94D9F7;stop-opacity:1" />
<stop  offset="0.486275" style="stop-color:#00A3DE;stop-opacity:1" />
<stop  offset="0.52549" style="stop-color:#0065B1;stop-opacity:1" />
<stop  offset="0.607843" style="stop-color:#0095D3;stop-opacity:1" />
</linearGradient>
<path style="fill:url(#LinearGradID_4) " d="M22.55 -13.85L17.95 -28.5L17.85 -28.5L13.2 -13.85L22.55 -13.85M35.45 0L27.05 0L24.75 -7.55L11.2 -7.55L8.6 0L0.5 0L13.55 -36.8L22.45 -36.8L35.45 0" />
</g>
<g id="PathID_8" transform="matrix(1.33822, 0, 0, 1.33822, 253.2, 91.3)" opacity="1">
</g>
<g id="PathID_9" transform="matrix(1.33822, 0, 0, 1.33822, 318.9, 91.3)" opacity="1">
<linearGradient
id="LinearGradID_5" gradientUnits="userSpaceOnUse" gradientTransform="matrix(-6.83584e-009, 0.156386, -0.0237092, -1.03636e-009, -5.4, -18.55)" spreadMethod ="pad" x1="-819.2" y1="0" x2="819.2" y2="0" >
<stop  offset="0" style="stop-color:#94D9F7;stop-opacity:1" />
<stop  offset="0.486275" style="stop-color:#00A3DE;stop-opacity:1" />
<stop  offset="0.52549" style="stop-color:#0065B1;stop-opacity:1" />
<stop  offset="0.607843" style="stop-color:#0095D3;stop-opacity:1" />
</linearGradient>
<path style="fill:url(#LinearGradID_5) " d="M31.8 -11Q31.8 -7.2 30.1 -4.7Q28.2 -2 24.8 -0.4Q21.55 1 17.95 1Q2 0.9 1.6 -11.3L9 -11.3Q9.1 -8.35 11.55 -6.7Q13.7 -5.2 16.95 -5.2Q19.9 -5.2 22.15 -6.5Q24.35 -7.75 24.35 -9.85Q24.4 -13.15 18.65 -14.55Q9.05 -16.85 7.85 -17.4Q2.15 -20.1 2.2 -26.6Q2.25 -29.95 3.9 -32.55Q5.55 -35.1 8.95 -36.55Q12.2 -37.95 15.95 -37.95Q21.75 -37.95 25.8 -35Q30.4 -31.75 30.65 -25.9L23.3 -25.9Q23.05 -28.65 20.8 -30.15Q18.8 -31.5 15.95 -31.5Q13.5 -31.5 11.6 -30.5Q9.3 -29.3 9.25 -27.05Q9.25 -23.9 15.1 -22.5Q24.95 -20.15 25.95 -19.7Q31.8 -17.1 31.8 -11" />
</g>
<g id="PathID_10" transform="matrix(1.33822, 0, 0, 1.33822, 318.9, 91.3)" opacity="1">
</g>
<g id="PathID_11" transform="matrix(1.33822, 0, 0, 1.33822, 361.8, 91.3)" opacity="1">
<linearGradient
id="LinearGradID_6" gradientUnits="userSpaceOnUse" gradientTransform="matrix(-6.83584e-009, 0.156386, -0.0237092, -1.03636e-009, -37.45, -18.55)" spreadMethod ="pad" x1="-819.2" y1="0" x2="819.2" y2="0" >
<stop  offset="0" style="stop-color:#94D9F7;stop-opacity:1" />
<stop  offset="0.486275" style="stop-color:#00A3DE;stop-opacity:1" />
<stop  offset="0.52549" style="stop-color:#0065B1;stop-opacity:1" />
<stop  offset="0.607843" style="stop-color:#0095D3;stop-opacity:1" />
</linearGradient>
<path style="fill:url(#LinearGradID_6) " d="M22.55 -13.85L17.95 -28.5L17.85 -28.5L13.2 -13.85L22.55 -13.85M35.45 0L27.05 0L24.75 -7.55L11.2 -7.55L8.6 0L0.5 0L13.55 -36.8L22.45 -36.8L35.45 0" />
</g>
<g id="PathID_12" transform="matrix(1.33822, 0, 0, 1.33822, 361.8, 91.3)" opacity="1">
</g>
<g id="PathID_13" transform="matrix(1.33822, 0, 0, 1.33822, 409.15, 91.3)" opacity="1">
<linearGradient
id="LinearGradID_7" gradientUnits="userSpaceOnUse" gradientTransform="matrix(-6.83584e-009, 0.156386, -0.0237092, -1.03636e-009, -72.85, -18.55)" spreadMethod ="pad" x1="-819.2" y1="0" x2="819.2" y2="0" >
<stop  offset="0" style="stop-color:#94D9F7;stop-opacity:1" />
<stop  offset="0.486275" style="stop-color:#00A3DE;stop-opacity:1" />
<stop  offset="0.52549" style="stop-color:#0065B1;stop-opacity:1" />
<stop  offset="0.607843" style="stop-color:#0095D3;stop-opacity:1" />
</linearGradient>
<path style="fill:url(#LinearGradID_7) " d="M26.35 -30.3L7.85 -30.3L7.85 -22L24.05 -22L24.05 -15.5L7.85 -15.5L7.85 0L0.15 0L0.15 -36.8L26.35 -36.8L26.35 -30.3" />
</g>
<g id="PathID_14" transform="matrix(1.33822, 0, 0, 1.33822, 409.15, 91.3)" opacity="1">
</g>
<g id="PathID_15" transform="matrix(1.33822, 0, 0, 1.33822, 445.5, 91.3)" opacity="1">
<linearGradient
id="LinearGradID_8" gradientUnits="userSpaceOnUse" gradientTransform="matrix(-6.83584e-009, 0.156386, -0.0237092, -1.03636e-009, -100, -18.55)" spreadMethod ="pad" x1="-819.2" y1="0" x2="819.2" y2="0" >
<stop  offset="0" style="stop-color:#94D9F7;stop-opacity:1" />
<stop  offset="0.486275" style="stop-color:#00A3DE;stop-opacity:1" />
<stop  offset="0.52549" style="stop-color:#0065B1;stop-opacity:1" />
<stop  offset="0.607843" style="stop-color:#0095D3;stop-opacity:1" />
</linearGradient>
<path style="fill:url(#LinearGradID_8) " d="M28.1 0L0.15 0L0.15 -36.8L27.2 -36.8L27.2 -30.3L7.65 -30.3L7.65 -22.45L25.65 -22.45L25.65 -16L7.65 -16L7.65 -6.5L28.1 -6.5L28.1 0" />
</g>
<g id="PathID_16" transform="matrix(1.33822, 0, 0, 1.33822, 445.5, 91.3)" opacity="1">
</g>
<g id="PathID_17" transform="matrix(-0.326195, -0.914918, 1.16701, -4.16526e-008, 93.1, 68.25)" opacity="1">
<linearGradient
id="LinearGradID_9" gradientUnits="userSpaceOnUse" gradientTransform="matrix(0.0683594, 0, -0, 0.0683594, 0, 0)" spreadMethod ="pad" x1="-819.2" y1="0" x2="819.2" y2="0" >
<stop  offset="0" style="stop-color:#FFD94F;stop-opacity:1" />
<stop  offset="0.85098" style="stop-color:#F89C1E;stop-opacity:1" />
<stop  offset="0.992157" style="stop-color:#FBB317;stop-opacity:1" />
</linearGradient>
<path style="fill:url(#LinearGradID_9) " d="M38.6 -6.45Q47.75 -6.5 53.85 -8.45L56 -9.2L56 18.25Q48.1 19.95 38.65 19.95L38.6 19.95Q19.2 19.95 -5.2 12.85Q-27.2 6.5 -42.55 6.5Q-51.1 6.55 -56 8.35L-56 -18.8L-42.55 -19.9Q-23.2 -19.85 2.1 -12.5Q23 -6.45 38.6 -6.45" />
</g>
<g id="PathID_18" transform="matrix(-0.326195, -0.914918, 1.16701, -4.16526e-008, 93.1, 68.25)" opacity="1">
</g>
<g id="PathID_19" transform="matrix(-0.326195, -0.914918, 1.16701, -4.16526e-008, 41.85, 68.3)" opacity="1">
<linearGradient
id="LinearGradID_10" gradientUnits="userSpaceOnUse" gradientTransform="matrix(0.0683594, 0, -0, 0.0683594, 0, 0)" spreadMethod ="pad" x1="-819.2" y1="0" x2="819.2" y2="0" >
<stop  offset="0" style="stop-color:#FFD94F;stop-opacity:1" />
<stop  offset="0.85098" style="stop-color:#F89C1E;stop-opacity:1" />
<stop  offset="0.992157" style="stop-color:#FBB317;stop-opacity:1" />
</linearGradient>
<path style="fill:url(#LinearGradID_10) " d="M38.6 -6.45Q47.75 -6.5 53.85 -8.45L56 -9.2L56 18.25Q48.1 19.95 38.65 19.95L38.6 19.95Q19.2 19.95 -5.2 12.85Q-27.2 6.5 -42.55 6.5Q-51.1 6.55 -56 8.35L-56 -18.8L-42.55 -19.9Q-23.2 -19.85 2.1 -12.5Q23 -6.45 38.6 -6.45" />
</g>
<g id="PathID_20" transform="matrix(-0.326195, -0.914918, 1.16701, -4.16526e-008, 41.85, 68.3)" opacity="1">
</g>
<g id="PathID_21" transform="matrix(-0.326196, 0.914918, 1.16701, -4.16526e-008, 120.55, 68.25)" opacity="1">
<linearGradient
id="LinearGradID_11" gradientUnits="userSpaceOnUse" gradientTransform="matrix(0.0683594, 0, -0, 0.0683594, 0, 0)" spreadMethod ="pad" x1="-819.2" y1="0" x2="819.2" y2="0" >
<stop  offset="0" style="stop-color:#94D9F7;stop-opacity:1" />
<stop  offset="0.337255" style="stop-color:#00A3DE;stop-opacity:1" />
<stop  offset="0.541176" style="stop-color:#0065B1;stop-opacity:1" />
<stop  offset="1" style="stop-color:#0095D3;stop-opacity:1" />
</linearGradient>
<path style="fill:url(#LinearGradID_11) " d="M38.6 -6.45Q47.75 -6.5 53.85 -8.45L56 -9.2L56 18.25Q48.1 19.95 38.65 19.95L38.6 19.95Q19.2 19.95 -5.2 12.85Q-27.2 6.5 -42.55 6.5Q-51.1 6.55 -56 8.35L-56 -18.8L-42.55 -19.9Q-23.2 -19.85 2.1 -12.5Q23 -6.45 38.6 -6.45" />
</g>
<g id="PathID_22" transform="matrix(-0.326196, 0.914918, 1.16701, -4.16526e-008, 120.55, 68.25)" opacity="1">
</g>
<g id="PathID_23" transform="matrix(-0.326196, 0.914918, 1.16701, -4.16526e-008, 69.15, 68.3)" opacity="1">
<linearGradient
id="LinearGradID_12" gradientUnits="userSpaceOnUse" gradientTransform="matrix(0.0683594, 0, -0, 0.0683594, 0, 0)" spreadMethod ="pad" x1="-819.2" y1="0" x2="819.2" y2="0" >
<stop  offset="0" style="stop-color:#EC1B2E;stop-opacity:1" />
<stop  offset="0.52549" style="stop-color:#D71921;stop-opacity:1" />
<stop  offset="0.627451" style="stop-color:#EC1C24;stop-opacity:1" />
<stop  offset="0.996078" style="stop-color:#EF4E23;stop-opacity:1" />
</linearGradient>
<path style="fill:url(#LinearGradID_12) " d="M38.6 -6.45Q47.75 -6.5 53.85 -8.45L56 -9.2L56 18.25Q48.1 19.95 38.65 19.95L38.6 19.95Q19.2 19.95 -5.2 12.85Q-27.2 6.5 -42.55 6.5Q-51.1 6.55 -56 8.35L-56 -18.8L-42.55 -19.9Q-23.2 -19.85 2.1 -12.5Q23 -6.45 38.6 -6.45" />
</g>
<g id="PathID_24" transform="matrix(-0.326196, 0.914918, 1.16701, -4.16526e-008, 69.15, 68.3)" opacity="1">
</g>
<g id="PathID_25" transform="matrix(0.547148, 0, 0, 0.547148, 250.05, -109.6)" opacity="1">
<path style="fill:#F0C77C;fill-opacity:1" d="M222 462.75L221.6 451.4Q221.2 440.1 218.9 424.8Q216.6 409.45 211.65 393.75Q206.65 378.05 197.5 369.25L254.5 369.25L256.05 371.55Q257.6 373.9 260.35 379.55Q263.05 385.2 266.65 394.65Q270.3 404.05 274.45 418.25L275.5 413.4Q276.55 408.6 278.7 401.3Q280.8 394.05 283.9 385.4Q287.05 376.8 291.2 369.25L348.45 369.25L351.35 375.65Q354.25 382.1 357.75 390.5Q361.2 398.9 364.1 407Q366.95 415.1 366.85 418.4Q366.75 421.1 367.85 416.35Q368.95 411.55 371.25 403.4Q373.6 395.2 377.1 385.65Q380.65 376.05 385.45 369.25L441.5 369.25L432.3 379.3Q423.1 389.35 405.75 403.15Q388.45 416.9 363.55 431.15Q338.65 445.4 307.25 453.75Q290.8 458.1 275.45 460.05Q260.05 462 248.2 462.6Q236.3 463.2 229.15 462.95L222 462.75" />
</g>
<g id="PathID_26" transform="matrix(0.547148, 0, 0, 0.547148, 250.05, -109.6)" opacity="1">
</g>
</svg>
